<svg fill="#FFFFFF" id="_x31__px" height="64" viewBox="0 0 24 24" width="64" xmlns="http://www.w3.org/2000/svg"><path d="m17.5 24c-.105 0-.21-.033-.299-.1-.253-.188-6.201-4.67-6.201-8.269 0-2.002 1.628-3.631 3.63-3.631 1.14 0 2.193.531 2.87 1.403.676-.872 1.729-1.403 2.87-1.403 2.002 0 3.63 1.629 3.63 3.631 0 3.6-5.948 8.081-6.201 8.27-.089.066-.194.099-.299.099zm-2.87-11c-1.45 0-2.63 1.181-2.63 2.631 0 2.429 3.723 5.848 5.5 7.239 1.776-1.392 5.5-4.813 5.5-7.239 0-1.45-1.18-2.631-2.63-2.631-1.049 0-1.995.619-2.411 1.577-.158.365-.759.365-.917 0-.417-.958-1.363-1.577-2.412-1.577z"/><path d="m9.5 19h-4c-1.378 0-2.5-1.121-2.5-2.5v-11c0-1.378 1.122-2.5 2.5-2.5h11c1.378 0 2.5 1.122 2.5 2.5v4c0 .276-.224.5-.5.5s-.5-.223-.5-.5v-4c0-.827-.673-1.5-1.5-1.5h-11c-.827 0-1.5.673-1.5 1.5v11c0 .827.673 1.5 1.5 1.5h4c.276 0 .5.224.5.5s-.223.5-.5.5z"/><path d="m8.5 16h-1c-.827 0-1.5-.673-1.5-1.5v-7c0-.827.673-1.5 1.5-1.5h3.586c.4 0 .777.156 1.061.439l2.707 2.707c.195.195.195.512 0 .707s-.512.195-.707 0l-2.707-2.707c-.094-.093-.223-.146-.354-.146h-3.586c-.276 0-.5.224-.5.5v7c0 .275.224.5.5.5h1c.276 0 .5.224.5.5s-.224.5-.5.5z"/><path d="m6.5 22c-.276 0-.5-.224-.5-.5v-3c0-.276.224-.5.5-.5s.5.224.5.5v3c0 .276-.224.5-.5.5z"/><path d="m11 4c-.276 0-.5-.224-.5-.5v-3c0-.276.224-.5.5-.5s.5.224.5.5v3c0 .276-.224.5-.5.5z"/><path d="m6.5 4c-.276 0-.5-.224-.5-.5v-3c0-.276.224-.5.5-.5s.5.224.5.5v3c0 .276-.224.5-.5.5z"/><path d="m15.5 4c-.276 0-.5-.224-.5-.5v-3c0-.276.224-.5.5-.5s.5.224.5.5v3c0 .276-.224.5-.5.5z"/><path d="m3.5 11.5h-3c-.276 0-.5-.224-.5-.5s.224-.5.5-.5h3c.276 0 .5.224.5.5s-.224.5-.5.5z"/><path d="m3.5 7h-3c-.276 0-.5-.224-.5-.5s.224-.5.5-.5h3c.276 0 .5.224.5.5s-.224.5-.5.5z"/><path d="m3.5 16h-3c-.276 0-.5-.224-.5-.5s.224-.5.5-.5h3c.276 0 .5.224.5.5s-.224.5-.5.5z"/><path d="m21.5 7h-3c-.276 0-.5-.224-.5-.5s.224-.5.5-.5h3c.276 0 .5.224.5.5s-.224.5-.5.5z"/></svg>
