<svg fill="#FFFFFF" height="70" viewBox="0 0 60 60" width="70" xmlns="http://www.w3.org/2000/svg"><g id="Page-1" fill="#FFFFFF" fill-rule="evenodd"><g id="023---Wifi-Hifi" fill="rgb(255,255,255)" fill-rule="nonzero"><path id="Shape" d="m45 56h-44c-.33191806.0001019-.6422574-.1644945-.82835145-.4393374s-.22368932-.6241122-.10034855-.9322626l4-10c.15220763-.3794521.51985889-.6282214.9287-.6284h36c.4088411.0001786.7764924.2489479.9287.6284l4 10c.1233408.3081504.0857455.6574197-.1003486.9322626-.186094.2748429-.4964333.4394393-.8283514.4393374zm-42.5229-2h41.0458l-3.2-8h-34.6457z"/><path id="Shape" d="m28 56h-10c-.3124667-.0000406-.6069535-.1461352-.7960248-.3949072-.1890714-.2487719-.2509913-.5716217-.1673752-.8726928l.9077-3.2676c.2418249-.8646224 1.0289982-1.4630506 1.9268-1.4648h6.2578c.898025.0018936 1.6853447.600482 1.9273 1.4653l.9072 3.2671c.0836161.3010711.0216962.6239209-.1673752.8726928-.1890713.248772-.4835581.3948666-.7960248.3949072zm-8.6846-2h7.3692l-.5557-2h-6.2578zm.5557-3v1z"/><path id="Shape" d="m44 60h-42c-1.10411252-.0011025-1.99889754-.8958875-2-2v-3c0-.5522847.44771525-1 1-1s1 .4477153 1 1v3h42v-3c0-.5522847.4477153-1 1-1s1 .4477153 1 1v3c-.0011025 1.1041125-.8958875 1.9988975-2 2z"/><path id="Shape" d="m41 46h-36c-.55228475 0-1-.4477153-1-1v-21c.00110246-1.1041125.89588748-1.9988975 2-2h34c1.1041125.0011025 1.9988975.8958875 2 2v21c0 .5522847-.4477153 1-1 1zm-35-2h34v-20h-34z"/><path id="Shape" d="m57 44h-16c-.5522847 0-1-.4477153-1-1s.4477153-1 1-1h16c.5519878-.0007162.9992838-.4480122 1-1v-38c-.0007162-.55198782-.4480122-.99928381-1-1h-26c-.5519878.00071619-.9992838.44801218-1 1v20c0 .5522847-.4477153 1-1 1s-1-.4477153-1-1v-20c.0018187-1.65610033 1.3438997-2.99818129 3-3h26c1.6561003.00181871 2.9981813 1.34389967 3 3v38c-.0018187 1.6561003-1.3438997 2.9981813-3 3z"/><path id="Shape" d="m44 20c-4.418278 0-8-3.581722-8-8s3.581722-8 8-8 8 3.581722 8 8c-.0050699 4.4161763-3.5838237 7.9949301-8 8zm0-14c-2.4267735 0-4.6145912 1.46185307-5.5432772 3.70389941-.928686 2.24204629-.4153515 4.82275329 1.3006365 6.53874129s4.296695 2.2293225 6.5387413 1.3006365 3.7038994-3.1165037 3.7038994-5.5432772c-.0036374-3.31220066-2.6877993-5.99636258-6-6z"/><path id="Shape" d="m44 16c-2.209139 0-4-1.790861-4-4s1.790861-4 4-4 4 1.790861 4 4c-.0024799 2.208111-1.791889 3.9975201-4 4zm0-6c-1.1045695 0-2 .8954305-2 2s.8954305 2 2 2 2-.8954305 2-2c-.0011025-1.1041125-.8958875-1.9988975-2-2z"/><path id="Shape" d="m44 40c-1.1196735.000885-2.2328671-.1698645-3.3008-.5063-.5221582-.1695509-.8099898-.7283566-.6448459-1.2519253.1651439-.5235688.7215039-.8160999 1.2464459-.6553747 4.3677635 1.3789448 9.0746089-.7416028 10.9356113-4.9267572s.2827767-9.1004692-3.6667579-11.419957c-3.9495346-2.3194877-9.0110596-1.3035744-11.7596534 2.3603142-.2143594.2858125-.5649147.4355547-.9196152.3928203-.3547006-.0427344-.6596589-.2714531-.8-.6-.1403412-.3285469-.0947442-.7070078.1196152-.9928203 2.0638491-2.7807134 5.3271055-4.4141978 8.79-4.4 6.0751322 0 11 4.9248678 11 11s-4.9248678 11-11 11z"/><path id="Shape" d="m44 36c-1.2334423.0031023-2.4451403-.324686-3.5088-.9492-.470674-.2831244-.6248915-.8928793-.3454165-1.3657293s.8880188-.6317796 1.3630165-.3559707c.7541597.4454916 1.6153134.6774071 2.4912.6709 2.7614237 0 5-2.2385763 5-5s-2.2385763-5-5-5c-.8828765-.0017427-1.7500646.2333221-2.5112.6807-.3077253.1851059-.6910764.190997-1.0043442.0154342s-.5083457-.5056195-.511086-.8647177c-.0027402-.3590982.1872781-.6920934.4978302-.8724165 1.0693053-.6295689 2.2879262-.9607459 3.5288-.959 3.8659932.0000001 6.9999998 3.1340068 6.9999998 7s-3.1340066 6.9999999-6.9999998 7z"/><circle id="Oval" cx="33" cy="5" r="1"/><circle id="Oval" cx="55" cy="5" r="1"/><circle id="Oval" cx="55" cy="39" r="1"/><path id="Shape" d="m25.0005 13.0122c-.4041211.0000203-.7685739-.2430798-.9238-.6162-1.8580713-4.477458-6.2290141-7.39595211-11.0767-7.39595211-4.84768593 0-9.21862874 2.91849411-11.0767 7.39595211-.21224303.5099245-.79767549.751243-1.3076.539-.50992451-.212243-.75124303-.7976755-.539-1.3076 2.16848445-5.22315936 7.26788503-8.62746973 12.9233-8.62746973 5.655415 0 10.7548156 3.40431037 12.9233 8.62746973.128229.3086167.0939508.6608735-.0913721.9389784s-.4972323.4453544-.8314279.4458216z"/><path id="Shape" d="m20.6348 15.0122c-.4037736.0001615-.7680279-.2425169-.9234-.6152-1.1252737-2.7135075-3.7738221-4.48242674-6.7114-4.48242674s-5.58612634 1.76891924-6.7114 4.48242674c-.21276771.509676-.79842402.7503677-1.30809999.5376-.50967598-.2127677-.7503677-.798424-.53760001-1.3081 1.43616418-3.4581367 4.81260045-5.71193635 8.5571-5.71193635 3.7444996 0 7.1209358 2.25379965 8.5571 5.71193635.1285337.3086316.0944833.6610606-.0907592.9393762-.1852425.2783157-.4972145.4457645-.8315408.4463238z"/><path id="Shape" d="m16.269 17.0122c-.4021757-.0000648-.7652532-.2408429-.9218-.6113-.3917215-.9510572-1.3186304-1.5717351-2.3472-1.5717351s-1.9554785.6206779-2.3472 1.5717351c-.1390299.3291845-.4431167.559192-.79771379.6033808-.3545971.0441889-.7058328-.1041543-.9214-.38915-.21556721-.2849957-.26271612-.6633463-.12368621-.9925308.70460401-1.6917216 2.3574093-2.7937601 4.19-2.7937601s3.485396 1.1020385 4.19 2.7937601c.1303728.3088549.0974449.6624724-.0877114.941946-.1851563.2794737-.497945.4476783-.8331886.448054z"/><path id="Shape" d="m20.6348 15.0122c-.4037736.0001615-.7680279-.2425169-.9234-.6152-1.1252737-2.7135075-3.7738221-4.48242674-6.7114-4.48242674s-5.58612634 1.76891924-6.7114 4.48242674c-.21276771.509676-.79842402.7503677-1.30809999.5376-.50967598-.2127677-.7503677-.798424-.53760001-1.3081 1.43616418-3.4581367 4.81260045-5.71193635 8.5571-5.71193635 3.7444996 0 7.1209358 2.25379965 8.5571 5.71193635.1285337.3086316.0944833.6610606-.0907592.9393762-.1852425.2783157-.4972145.4457645-.8315408.4463238z"/><path id="Shape" d="m16.269 17.0122c-.4021757-.0000648-.7652532-.2408429-.9218-.6113-.3917215-.9510572-1.3186304-1.5717351-2.3472-1.5717351s-1.9554785.6206779-2.3472 1.5717351c-.1390299.3291845-.4431167.559192-.79771379.6033808-.3545971.0441889-.7058328-.1041543-.9214-.38915-.21556721-.2849957-.26271612-.6633463-.12368621-.9925308.70460401-1.6917216 2.3574093-2.7937601 4.19-2.7937601s3.485396 1.1020385 4.19 2.7937601c.1303728.3088549.0974449.6624724-.0877114.941946-.1851563.2794737-.497945.4476783-.8331886.448054z"/><circle id="Oval" cx="13" cy="18.012" r="1"/><path id="Shape" d="m18 39h-2c-1.6561003-.0018187-2.9981813-1.3438997-3-3v-4c.0018187-1.6561003 1.3438997-2.9981813 3-3h2c.5522847 0 1 .4477153 1 1v8c0 .5522847-.4477153 1-1 1zm-2-8c-.5519878.0007162-.9992838.4480122-1 1v4c.0007162.5519878.4480122.9992838 1 1h1v-6z"/><path id="Shape" d="m22 42.002c-.3628003-.00083-.7185015-.1006116-1.0288-.2886-.0416846-.0250745-.0814897-.0531486-.1191-.084l-3.4854-2.856c-.2320415-.1897547-.3666476-.47365-.3667-.7734v-8c-.0000703-.2996671.1343455-.5835479.3662-.7734l3.4854-2.856c.0376103-.0308514.0774154-.0589255.1191-.084.6178651-.3708702 1.3874724-.3806741 2.0145843-.0256633s1.0147515 1.0199372 1.0147157 1.7405633v11.997c-.0028475 1.1039562-.8960504 1.9987222-2 2.0035zm-3-4.4756 3.0049 2.4624-.0049-11.9737-3 2.4585z"/><path id="Shape" d="m27.6914 42.0005c-.4716458.0009556-.8798395-.327767-.9794634-.7887721-.099624-.4610051.1364093-.9289463.5663634-1.1228279 2.2846672-1.1706667 3.7217392-3.5217684 3.7217392-6.0889s-1.437072-4.9182333-3.7217392-6.0889c-.3255047-.1474078-.5476423-.4572729-.5827358-.8128721-.0350934-.3555992.1221888-.7029086.4126-.9111.2904113-.2081914.6698311-.2456357.9953358-.0982279 3.0002351 1.4952107 4.8964885 4.5589267 4.8964885 7.9111s-1.8962534 6.4158893-4.8964885 7.9111c-.1294155.058859-.2699284.0893416-.4121.0894z"/><path id="Shape" d="m26.0005 37.9971c-.4702986.0003014-.8772539-.3271474-.9776089-.7866142-.1003549-.4594669.1330132-.9267726.5606089-1.1225858.7758151-.4075037 1.2617122-1.2115734 1.2617122-2.0879s-.4858971-1.6803963-1.2617122-2.0879c-.5021097-.2300266-.7226766-.8235403-.49265-1.32565s.8235403-.7226766 1.32565-.49265c1.4871399.7335863 2.4287235 2.2479678 2.4287235 3.9062s-.9415836 3.1726137-2.4287235 3.9062c-.1304592.0600337-.2723907.0910471-.416.0909z"/></g></g></svg>
