<svg fill="#FFFFFF" height="64" viewBox="0 0 512 512" width="64" xmlns="http://www.w3.org/2000/svg"><path d="m439 256c0 5.519531 4.480469 10 10 10s10-4.480469 10-10-4.480469-10-10-10-10 4.480469-10 10zm0 0"/><path d="m116 266c5.519531 0 10-4.480469 10-10s-4.480469-10-10-10-10 4.480469-10 10 4.480469 10 10 10zm0 0"/><path d="m256 512c137.90625 0 256-117.695312 256-256 0-137.90625-117.695312-256-256-256-50.914062 0-104.007812 15.46875-144.203125 41.703125l-11.824219-34.910156c-1.375-4.0625-5.1875-6.792969-9.472656-6.792969s-8.097656 2.730469-9.472656 6.792969l-13.40625 39.582031-40.28125 13.429688c-4.085938 1.359374-6.839844 5.179687-6.839844 9.484374 0 4.304688 2.753906 8.125 6.839844 9.488282l31.382812 10.460937c-37.667968 46.230469-55.722656 108.0625-55.722656 166.761719 0 138.765625 115.859375 256 253 256zm-177.339844-448.222656c2.972656-.992188 5.308594-3.3125 6.3125-6.28125l5.527344-16.320313 5.527344 16.320313c1.003906 2.96875 3.34375 5.292968 6.316406 6.285156l16.535156 5.507812-16.542968 5.515626c-2.984376.996093-5.328126 3.335937-6.324219 6.324218l-5.511719 16.539063-4.566406-13.703125c-.351563-4.585938-3.910156-8.042969-7.269532-9.160156l-16.542968-5.515626zm-6.835937 41.105468 9.1875 27.570313c1.363281 4.082031 5.183593 6.835937 9.488281 6.835937s8.125-2.753906 9.488281-6.835937l13.417969-40.257813 40.253906-13.417968c4.085938-1.359375 6.839844-5.179688 6.839844-9.484375 0-4.304688-2.753906-8.125-6.835938-9.488281l-21.484374-7.160157c35.691406-20.644531 80.554687-32.644531 123.820312-32.644531 127.925781 0 236 108.074219 236 236s-108.074219 236-236 236c-126.300781 0-233-108.074219-233-236 0-56.542969 18.03125-111.695312 48.824219-151.117188zm0 0"/><path d="m256 459c5.523438 0 10-4.476562 10-10s-4.476562-10-10-10c-100.820312 0-186-83.804688-186-183 0-5.523438-4.476562-10-10-10s-10 4.476562-10 10c0 111.117188 96.621094 203 206 203zm0 0"/><path d="m256 73c84.34375 0 161.3125 62.472656 179.03125 145.3125 1.160156 5.417969 6.488281 8.839844 11.871094 7.6875 5.398437-1.15625 8.839844-6.472656 7.6875-11.871094-19.410156-90.738281-103.167969-161.128906-198.589844-161.128906-5.523438 0-10 4.476562-10 10s4.476562 10 10 10zm0 0"/><path d="m118.867188 286.011719c-5.296876 1.5625-8.320313 7.125-6.757813 12.421875 18.195313 61.609375 75.386719 107.566406 143.890625 107.566406 5.523438 0 10-4.476562 10-10s-4.476562-10-10-10c-57.214844 0-108.496094-38.339844-124.710938-93.230469-1.5625-5.300781-7.125-8.324219-12.421874-6.757812zm0 0"/><path d="m256 126c71.683594 0 130 58.316406 130 130 0 5.523438 4.476562 10 10 10s10-4.476562 10-10c0-82.710938-67.289062-150-150-150-5.523438 0-10 4.476562-10 10s4.476562 10 10 10zm0 0"/><path d="m256 346c49.625 0 90-40.375 90-90s-40.375-90-90-90-90 40.375-90 90 40.375 90 90 90zm0-160c38.597656 0 70 31.402344 70 70s-31.402344 70-70 70-70-31.402344-70-70 31.402344-70 70-70zm0 0"/><path d="m256 286c16.542969 0 30-13.457031 30-30s-13.457031-30-30-30-30 13.457031-30 30 13.457031 30 30 30zm0-40c5.515625 0 10 4.484375 10 10s-4.484375 10-10 10-10-4.484375-10-10 4.484375-10 10-10zm0 0"/><path d="m421.042969 345.414062-23.679688-11.839843-11.851562-23.6875c-1.691407-3.386719-5.15625-5.527344-8.945313-5.527344-3.785156 0-7.25 2.144531-8.941406 5.53125l-11.839844 23.6875-23.6875 11.835937c-3.386718 1.695313-5.527344 5.160157-5.527344 8.945313 0 3.789063 2.140626 7.253906 5.527344 8.945313l23.6875 11.839843 11.839844 23.6875c1.691406 3.386719 5.15625 5.527344 8.941406 5.527344h.003906c3.785157 0 7.25-2.136719 8.941407-5.523437l11.851562-23.691407 23.675781-11.839843c3.390626-1.691407 5.53125-5.15625 5.53125-8.941407 0-3.789062-2.140624-7.253906-5.527343-8.949219zm-35.605469 13.332032c-1.933594.96875-3.503906 2.535156-4.46875 4.472656l-4.394531 8.78125-4.390625-8.78125c-.964844-1.9375-2.535156-3.503906-4.472656-4.472656l-8.773438-4.386719 8.773438-4.382813c1.9375-.96875 3.507812-2.539062 4.472656-4.472656l4.390625-8.78125 4.394531 8.78125c.964844 1.9375 2.535156 3.503906 4.46875 4.472656l8.773438 4.386719zm0 0"/><path d="m10 492h10v10c0 5.523438 4.476562 10 10 10s10-4.476562 10-10v-10h10c5.523438 0 10-4.476562 10-10s-4.476562-10-10-10h-10v-10c0-5.523438-4.476562-10-10-10s-10 4.476562-10 10v10h-10c-5.523438 0-10 4.476562-10 10s4.476562 10 10 10zm0 0"/><path d="m502 452h-10v-10c0-5.523438-4.476562-10-10-10s-10 4.476562-10 10v10h-10c-5.523438 0-10 4.476562-10 10s4.476562 10 10 10h10v10c0 5.523438 4.476562 10 10 10s10-4.476562 10-10v-10h10c5.523438 0 10-4.476562 10-10s-4.476562-10-10-10zm0 0"/></svg>
